<svg id="Layer_2" data-name="Layer 2" xmlns="http://www.w3.org/2000/svg" viewBox="0 0 1000 1000"><defs><style>.cls-1{fill:#104fc1;}.cls-1,.cls-11,.cls-2,.cls-3,.cls-4,.cls-5,.cls-6,.cls-7,.cls-8,.cls-9{stroke:#000;stroke-linecap:round;stroke-miterlimit:10;stroke-width:3px;}.cls-3{fill:none;}.cls-4{fill:#fff8f8;}.cls-5{fill:#14af6c;}.cls-6{fill:#ffc0c0;}.cls-7{fill:#f7ce21;}.cls-8{fill:#d1b7e5;}.cls-9{fill:#ef3f3f;}.cls-10{fill:#231f20;}.cls-11{fill:#f9851c;}</style></defs><path class="cls-1" d="M690.69,729.88l54.54.64,54.53.63A83.51,83.51,0,0,0,821,728.69a77.54,77.54,0,0,0,19.79-8A73.74,73.74,0,0,0,854.06,711a69.61,69.61,0,0,0,11.88-14.33,73.61,73.61,0,0,0,11-41.1,80.36,80.36,0,0,0-13.25-41.8q-29.29-44.09-58.58-88.16L746.5,437.46a199,199,0,0,0-26.37-32,186.94,186.94,0,0,0-32.56-25.6c-3.8-2.35-7.8-4.65-12-6.84s-8.57-4.3-13.14-6.27A189.23,189.23,0,0,0,596,351.71c-21-1-40.79.85-59.35,2.63-27.79,2.67-39.19,5.08-53.32,9.35s-31,10.37-69.68,20.44c-30.94,8-52,13.92-67.15,18.75s-24.6,8.64-32.31,12.52c-1.3.65-2.59,1.33-4,2.1s-2.94,1.64-4.7,2.66A164.61,164.61,0,0,0,267.3,450.8C255.87,463,244.87,477.62,231.74,496c-9.51,13.34-13,18.72-17.5,25.52s-9.86,15-23.08,34.07c-10.14,14.58-18.37,26.07-26,37.47S150.41,615.78,142.6,630c-7.22,13.1-12.44,23.94-15.65,34a75.65,75.65,0,0,0-3.68,29.57,89.17,89.17,0,0,0,1.29,10.51A54.82,54.82,0,0,0,128.74,717c6.68,14.3,18.92,24.65,32.94,31.25a94.17,94.17,0,0,0,43.57,8.8,81.19,81.19,0,0,0,19.24-3.33A161.25,161.25,0,0,0,240,748a139.3,139.3,0,0,0,23.65-12.4,144.52,144.52,0,0,0,16.19-12.32l11.68-10.35,11.68-10.35.33,14.34.32,14.34,193.4-.69Z"/><path class="cls-2" d="M655.55,534.44l21,33,21,33h-33q-2.26-16.47-4.54-32.94l-4.53-32.94s0-.06,0-.07A.06.06,0,0,1,655.55,534.44Z"/><path class="cls-3" d="M664.51,600.36h72.9"/><polygon class="cls-4" points="451.85 427.32 468.42 448.5 484.98 469.69 489.78 443.46 494.57 417.24 473.21 422.28 451.85 427.32"/><polygon class="cls-1" points="385.29 391.63 402.01 476.16 418.73 560.69 451.86 515.19 484.98 469.69 450.91 426.1 416.84 382.51 401.06 387.07 385.29 391.63"/><path class="cls-1" d="M504.36,361.74l-9.69,54-9.69,54,58,28.45,58,28.46-32.17-86.13L536.6,354.34,520.48,358Z"/><path class="cls-4" d="M485,471.69V731.26h87.68l-43.75-129.8-43.74-129.8a.11.11,0,0,0-.11-.07A.1.1,0,0,0,485,471.69Z"/><path class="cls-5" d="M578.78,518.7a15.31,15.31,0,0,0-15.32-15.32H319.79a15.31,15.31,0,0,0-15.32,15.32v19.38H578.78V518.7Z"/><path class="cls-4" d="M304.47,538.08v158A17.31,17.31,0,0,0,309,707.82a14.75,14.75,0,0,0,10.84,4.86H563.46a14.75,14.75,0,0,0,10.84-4.86,17.31,17.31,0,0,0,4.48-11.75v-158H304.47Z"/><polyline class="cls-3" points="697.56 600.36 676.48 567.29 655.4 534.21"/><path class="cls-6" d="M189.11,558.75l52.53,29.42,52.53,29.42s4.41-7,11-17,15.36-23,24.06-34.88c4.32-5.91,8.92-11.6,13.74-17.09s9.88-10.79,15.1-15.92c2.25-2.22,4.84-5.21,6-8.22s.94-6-2.47-8.27a11.3,11.3,0,0,0-5.84-1.86,12.82,12.82,0,0,0-6,1.26l-20.74,10-20.74,10a12.41,12.41,0,0,1-2.34.86,10.24,10.24,0,0,1-2.46.31,8.7,8.7,0,0,1-2.28-.27,6.76,6.76,0,0,1-2.26-1.07,8.33,8.33,0,0,1-3.14-6.07,12.43,12.43,0,0,1,2.21-8.1l9.46-17,9.47-17a7.95,7.95,0,0,1,9.23-3.73l25.46,7.67,25.46,7.68s1.76.59,4.4,1.18a47.89,47.89,0,0,0,9.72,1.23,9.74,9.74,0,0,0,9.83-7.86,9.85,9.85,0,0,0-5.56-11.35l-.18-.09-.19-.08c-4-1.8-7.93-3.62-11.86-5.51s-7.81-3.85-11.65-5.92l-20.31-10.94L331,448.65c-1.69-.92-3.38-1.86-5.05-2.81s-3.34-1.92-5-2.89A38.26,38.26,0,0,0,307.44,438c-5.52-.77-11.56.16-16.58,5.24A19.48,19.48,0,0,0,287,440.4a15.1,15.1,0,0,0-9.46-2.06,14.09,14.09,0,0,0-6.68,2.94,24.38,24.38,0,0,0-4.11,4.13c-3.86,4.78-13.3,18.08-26.76,37.71S209.05,528.69,189.11,558.75Z"/><polyline class="cls-3" points="290.86 443.24 279.48 459.2 268.1 475.16"/><path class="cls-3" d="M294.17,617.59q-9.12,15.52-18.25,31L257.68,679.7"/><path class="cls-7" d="M357.76,588.75,343,614.27,328.29,639.8a6.57,6.57,0,0,0,5.7,9.86h58.94a6.57,6.57,0,0,0,5.7-9.86l-14.74-25.53-14.73-25.52a6.58,6.58,0,0,0-11.4,0Z"/><path d="M363.35,631.54h0a2.84,2.84,0,0,1-2-.82,2.8,2.8,0,0,1-.82-2V600a2.8,2.8,0,0,1,2.81-2.81h0a2.82,2.82,0,0,1,2.81,2.81v28.72a2.82,2.82,0,0,1-2.81,2.81Z"/><path d="M366.65,640.46a3.31,3.31,0,1,1-1-2.33A3.26,3.26,0,0,1,366.65,640.46Z"/><path d="M413.84,634.08v-8.93l12.89-17.35,12.89-17.36h11.53v34.33h7v9.31h-7v10.83H440.31V634.08H413.84ZM441.15,603,433,613.9l-8.17,10.87h16.33V603Z"/><path d="M464.19,617.52q0-13.65,5.15-20.48t15.45-6.83a22.09,22.09,0,0,1,9.39,1.83,15,15,0,0,1,6.33,5.49,27.39,27.39,0,0,1,3.6,8.66,53.93,53.93,0,0,1,0,22.72,27.22,27.22,0,0,1-3.6,8.68,15,15,0,0,1-6.33,5.49,22.09,22.09,0,0,1-9.39,1.83q-10.29,0-15.45-6.84T464.19,617.52Zm30.52,0a46.36,46.36,0,0,0-.51-7.29,21.16,21.16,0,0,0-1.51-5.41,7.05,7.05,0,0,0-3-3.35,9.88,9.88,0,0,0-4.91-1.11,10.12,10.12,0,0,0-5,1.11,7,7,0,0,0-3,3.35,21.14,21.14,0,0,0-1.52,5.41,47.69,47.69,0,0,0-.5,7.29,48.47,48.47,0,0,0,.5,7.36,21,21,0,0,0,1.52,5.42,7,7,0,0,0,3,3.35,10.12,10.12,0,0,0,5,1.12,9.88,9.88,0,0,0,4.91-1.12,7,7,0,0,0,3-3.35,21,21,0,0,0,1.51-5.42A47.12,47.12,0,0,0,494.71,617.52Z"/><path d="M511.8,634.08v-8.93l12.89-17.35,12.9-17.36h11.52v34.33h7v9.31h-7v10.83H538.28V634.08H511.8ZM539.11,603,531,613.9l-8.16,10.87h16.32V603Z"/><path class="cls-8" d="M788.4,466.7H663.72a12.79,12.79,0,0,1-12.78-12.78V326.12a12.79,12.79,0,0,1,12.78-12.78H788.4a12.79,12.79,0,0,1,12.78,12.78v127.8A12.79,12.79,0,0,1,788.4,466.7Z"/><path class="cls-9" d="M771.5,390a45.44,45.44,0,1,1-13.31-32.13A45.3,45.3,0,0,1,771.5,390Z"/><path class="cls-4" d="M730,392.14l6.29-6.9,6.3-6.9a3.5,3.5,0,0,0-5.17-4.72l-6,6.63-6,6.63-6-6.7-6-6.71a3.5,3.5,0,0,0-2.42-1.16,3.46,3.46,0,0,0-2.53.87,3.5,3.5,0,0,0-1.16,2.42,3.44,3.44,0,0,0,.88,2.53l6.2,7,6.21,7-6.29,6.9-6.3,6.9a3.52,3.52,0,0,0-.91,2.52,3.49,3.49,0,0,0,2.25,3.11,3.52,3.52,0,0,0,3.83-.91l6.05-6.63,6-6.63,6,6.71,6,6.7a3.55,3.55,0,0,0,1.21.88,3.46,3.46,0,0,0,1.41.29,3.38,3.38,0,0,0,1.22-.22,3.34,3.34,0,0,0,1.11-.66,3.48,3.48,0,0,0,1.16-2.41,3.45,3.45,0,0,0-.87-2.53l-6.21-7Z"/><path class="cls-7" d="M263.47,366.47h-91.4A16.12,16.12,0,0,1,156,350.38V259a16.1,16.1,0,0,1,16.09-16.08h91.4A16.08,16.08,0,0,1,279.55,259v91.4a16.1,16.1,0,0,1-16.08,16.09Z"/><path d="M205.66,285.88a4.37,4.37,0,0,1-1.29,3.12,4.43,4.43,0,1,1,1.29-3.12Z"/><path d="M205.66,317a4.4,4.4,0,1,1-1.29-3.13A4.39,4.39,0,0,1,205.66,317Z"/><path class="cls-3" d="M238.72,275a38.17,38.17,0,0,0-8.6,7.88,33.88,33.88,0,0,0-.05,43.55,38.22,38.22,0,0,0,8.65,8"/><path class="cls-2" d="M534.72,321.66l-29.13.59-29.12.59a89,89,0,0,0,4.93,22.92,78,78,0,0,0,30.5,39.05,82,82,0,0,0,12.59,6.82A95,95,0,0,0,532.34,374a97.49,97.49,0,0,0,4.26-19.65,98.67,98.67,0,0,0,.44-16.7A96.3,96.3,0,0,0,534.72,321.66Z"/><path class="cls-6" d="M502.86,377.83c-1.58-1.44-2.8-2.67-3.74-3.68s-1.58-1.81-2-2.38c-.33-.42-.63-.82-.89-1.17s-.48-.67-.66-.94c.22.07.46.15.73.22s.56.16.87.23l.76.16c.46.09,1.07.2,1.69.27A21.16,21.16,0,1,0,490.34,332a22.08,22.08,0,0,0-8.79,11.89c-.66-1.47-1.34-3.12-2-5a59.7,59.7,0,0,1-1.72-6.05c-.43-1.88-.74-3.67-1-5.35s-.36-3.25-.43-4.69l-49.71,1-49.7,1c-.44,1.86-.82,3.74-1.16,5.64s-.61,3.83-.83,5.78c-2.73,24.49,3.83,47.68,16.65,65.36s31.9,29.86,54.2,32.36a75.78,75.78,0,0,0,45.22-9.18,87.6,87.6,0,0,0,33.35-33.19,84.73,84.73,0,0,1-8-4c-2.33-1.33-4.31-2.61-5.94-3.73-.91-.63-2.05-1.45-3.35-2.45S504.39,379.21,502.86,377.83Z"/><path class="cls-9" d="M484.91,372.43a11.34,11.34,0,1,1-2.41-8.33A11.3,11.3,0,0,1,484.91,372.43Z"/><path class="cls-9" d="M418.66,401.84a11.34,11.34,0,1,1-2.41-8.33A11.32,11.32,0,0,1,418.66,401.84Z"/><path class="cls-10" d="M406.22,372.25a4.57,4.57,0,1,1-1-3.36A4.53,4.53,0,0,1,406.22,372.25Z"/><path class="cls-10" d="M452,358.41a4.59,4.59,0,0,1-5.05,4,4.58,4.58,0,1,1,5.05-4Z"/><path class="cls-3" d="M400.29,346a89.14,89.14,0,0,1,11.87-5.49A89.69,89.69,0,0,1,451.85,335"/><polyline class="cls-3" points="412.93 341.67 418.05 362.71 423.17 383.76 426.08 382.8 428.99 381.85"/><path class="cls-11" d="M465.75,256.63c-20.53-2.3-40.2,4-56,16.28a92,92,0,0,0-32.7,51.95l78.83-1.6,78.83-1.6a88.71,88.71,0,0,0-24.63-44A76,76,0,0,0,465.75,256.63Z"/><polyline class="cls-3" points="494.57 355.75 501.77 351.01 508.97 346.27"/><path class="cls-2" d="M407,324.25a41.92,41.92,0,0,1-5.55,24,36.61,36.61,0,0,1-17.51,15.48,34.09,34.09,0,0,1-8.63,2.3A36.77,36.77,0,0,1,348.62,359a32.76,32.76,0,0,1-13.06-24.93,30.64,30.64,0,0,1,.95-8.87,35.4,35.4,0,0,1,9.86-16.53c4.82-4.52,10.94-7.5,17.73-7.31a24.05,24.05,0,0,1,11.51,3.46,31.39,31.39,0,0,1,6.29,4.91q-.91,2.16-1.79,4.56c-.57,1.6-1.13,3.29-1.65,5.05-.28,1-.53,1.9-.77,2.82s-.46,1.82-.66,2.71l15-.3Z"/><polyline class="cls-3" points="387.57 298.33 456.78 298.45 525.99 298.57"/><polyline class="cls-3" points="408.5 298.37 407.06 311.32 405.61 324.28"/><polyline class="cls-3" points="435.83 298.61 434.46 310.85 433.09 323.09"/><polyline class="cls-3" points="469.19 298.99 467.84 311.01 466.5 323.04"/><polyline class="cls-3" points="503.21 299 501.94 310.38 500.67 321.77"/><path class="cls-3" d="M434.46,406.34a20.92,20.92,0,0,1,1.82-4.52,18.36,18.36,0,0,1,4.59-5.51,18.92,18.92,0,0,1,10.06-4,23.39,23.39,0,0,1,11.38,1.81"/><path class="cls-6" d="M627.32,596.08a54.16,54.16,0,0,1-6.69-1.19,49.13,49.13,0,0,1-6.47-2.06,32,32,0,0,1-3.53-1.64,24.83,24.83,0,0,1-3.29-2.17c-5.75-4.46-10.29-10.07-14.54-15.93s-8.25-12-12.89-17.44a9.41,9.41,0,0,0-16.47,4.6,7.89,7.89,0,0,0-.08,1.68,10.47,10.47,0,0,0,.21,1.66c1.44,7.08,3.07,14.64,4.75,22.32s3.4,15.5,5,23.08a18.54,18.54,0,0,1-12.8,21.64c-14.28,4.27-30.44,8.62-47,12.64S480,651,464.15,653.9a25.56,25.56,0,0,0-5.36,1.51,13.82,13.82,0,0,0-5.89,4.46,14.26,14.26,0,0,0-2.58,7.32,24.56,24.56,0,0,0,.38,6.31,14.18,14.18,0,0,0-6.73,2.29,11.13,11.13,0,0,0-4.2,5.07,11,11,0,0,0-.73,2.74,9.31,9.31,0,0,0,.51,4.57,10.33,10.33,0,0,0,4.51,5.11,14.58,14.58,0,0,0,7.47,1.9,10.59,10.59,0,0,0-3.28,4.52,10.33,10.33,0,0,0-.5,5.49c0,.13.05.26.08.39l.09.37a9,9,0,0,0,3.47,5,9.91,9.91,0,0,0,5.85,1.85l5.84,0,5.84-.05a17.54,17.54,0,0,0-1.24,4.45,9.35,9.35,0,0,0,.87,5.65,9.71,9.71,0,0,0,5.4,4.29,31.5,31.5,0,0,0,6,1.39,233.57,233.57,0,0,0,26.35,2.44c8.4.36,15.75.37,20,.35l54.18-.14,54.18-.14,20.92-.54,20.92-.55-6-64.76-6-64.76-18.59-2.14Z"/><path class="cls-3" d="M450.7,673.5l43.92-6.89,43.91-6.89"/><polyline class="cls-3" points="451.53 695.18 497.02 689.58 542.52 683.99"/><polyline class="cls-3" points="468.92 712.68 505.72 709.59 542.52 706.49"/><path class="cls-2" d="M303.6,603l-22.89,38.25-22.89,38.25a.05.05,0,0,0,.08.07l23.28-17.88,23.29-17.89-.44-20.4Z"/></svg>