<svg id="Layer_2" data-name="Layer 2" xmlns="http://www.w3.org/2000/svg" viewBox="0 0 1000 1000"><defs><style>.cls-1{fill:#104fc1;}.cls-1,.cls-10,.cls-2,.cls-3,.cls-4,.cls-5,.cls-6,.cls-7,.cls-8,.cls-9{stroke:#000;stroke-linecap:round;stroke-miterlimit:10;stroke-width:3px;}.cls-2{fill:#ffc0c0;}.cls-3{fill:none;}.cls-4{fill:#f9851c;}.cls-5{fill:#14af6c;}.cls-6{fill:#d1b7e5;}.cls-7{fill:#f7ce21;}.cls-9{fill:#fff8f8;}.cls-10{fill:#ef3f3f;}.cls-11{fill:#231f20;}</style></defs><path class="cls-1" d="M621.62,394.45c-4.93-1-10.86-2.14-17.66-3.19s-14.47-2-22.86-2.73c-12.86-1.09-24.13-1.32-33.55-1.18s-17,.64-22.44,1c-30.15,2-65.44,8.28-94.47,14.39s-51.78,12-56.85,13.38q-7.43,97.51-14.84,195t-14.84,195l171.47.64,171.48.64Q670.7,704.23,654.34,601T621.62,394.45Z"/><path class="cls-2" d="M621.62,394.45q4.47,29.83,9.18,59.95t9.7,60.53q3.3,20.19,6.68,40.22T654,595.06c14.26,6.69,26.64,12.54,37,17.44s18.59,8.85,24.62,11.74c12.9,6.18,22.08,10.62,30.15,13.57a70.38,70.38,0,0,0,23.54,4.67,87.47,87.47,0,0,0,26.57-3.39A72.21,72.21,0,0,0,808.93,634a83.33,83.33,0,0,0,23-17.69,111.29,111.29,0,0,0,15-21.2q16.39-29.37,31.84-59.21t29.65-60.33c3.9-8.39,7.72-16.65,12-24.63a152.93,152.93,0,0,1,14.8-23,306.58,306.58,0,0,0,21.94-32.46c6.77-11.25,13.2-22.73,19.94-33.82a37.45,37.45,0,0,0,3.76-7.82,17,17,0,0,0,.27-11,14.51,14.51,0,0,0-2-3.78,18.32,18.32,0,0,0-2.27-2.47,54.78,54.78,0,0,0,4.82-7.09c2.07-3.66,3.92-8.14,3.55-12a12.8,12.8,0,0,0-.66-3,11.41,11.41,0,0,0-.49-1.2,11.24,11.24,0,0,0-3.57-4,14.22,14.22,0,0,0-3.2-1.69A21.66,21.66,0,0,0,981.1,298a12,12,0,0,0-1.78-8.3,9.91,9.91,0,0,0-1.27-1.51,7.48,7.48,0,0,0-2.61-1.7c-2.61-1-5.89-.36-9.26,1.64a32,32,0,0,0-9.82,9.84,14.53,14.53,0,0,0-1-3.91A10.28,10.28,0,0,0,951,289a9.44,9.44,0,0,0-1.22-.59,7.51,7.51,0,0,0-2-.48,9.1,9.1,0,0,0-5.82,1.73,23.55,23.55,0,0,0-4.11,3.62C935.21,296,930,302.07,923,310.65s-16,19.71-26.09,32.58c-1.53,2-5.32,6.94-9.17,11.17s-7.75,7.74-9.49,6.91a4.75,4.75,0,0,1-1.29-.95,5.13,5.13,0,0,1-.49-.58,5.63,5.63,0,0,1-.84-2.37,6.56,6.56,0,0,1,.18-2.53l4.5-17.2,4.5-17.19a28.57,28.57,0,0,0,.93-6.21c.09-3.13-.47-6.63-3-8.46a7.88,7.88,0,0,0-1.41-.75,6.6,6.6,0,0,0-2-.46c-3.25-.2-6.56,2.51-10.3,7.71s-7.93,12.88-12.93,22.62c-4.81,9.37-8.41,16.4-11.09,21.92a103.3,103.3,0,0,0-5.48,12.94,139.62,139.62,0,0,0-4.22,16.94,142.53,142.53,0,0,0-2.28,22.55l-27.5,40.16-27.51,40.17q-11.49-6.74-23.19-13.87t-23.59-14.7c-15.53-9.88-26.18-17.85-36.36-25.27a321.16,321.16,0,0,0-33.49-22c-8.19-4.62-15.81-8.5-22.55-11.7S626.28,396.37,621.62,394.45Z"/><path class="cls-3" d="M956.36,298l-18.75,27.28-18.76,27.29"/><polyline class="cls-3" points="977.23 307.67 956.35 336.25 935.47 364.83"/><polyline class="cls-3" points="976.78 336.67 963.87 354.55 950.97 372.42"/><path class="cls-4" d="M609.78,358.2a3.51,3.51,0,0,1-1.67-.42,3.39,3.39,0,0,1-1.29-1.21,106.44,106.44,0,0,1-11-23.14,98.48,98.48,0,0,1-4.79-24.49c-.4-6-1-14.49.39-23.5s4.63-18.49,11.92-26.35a43.41,43.41,0,0,1,6.55-5.9A37.33,37.33,0,0,1,623.15,247a42.39,42.39,0,0,1,5.12-1A31.61,31.61,0,0,1,636,246a83.25,83.25,0,0,1,10.21-16.14,128.42,128.42,0,0,1,9-10A116.37,116.37,0,0,1,674,204.31a122.77,122.77,0,0,1,22.09-11.55,3.5,3.5,0,1,1,2.6,6.49,116.26,116.26,0,0,0-20.8,10.88,109,109,0,0,0-17.73,14.65,119.18,119.18,0,0,0-8,8.84,77.4,77.4,0,0,0-9.22,14.11l.91.38.92.43a29.83,29.83,0,0,1,12.52,11.79,25.1,25.1,0,0,1,3.48,15.83,21.34,21.34,0,0,1-2.59,7.95,13.75,13.75,0,0,1-5.14,5.05,14.83,14.83,0,0,1-8.33,1.73,15.63,15.63,0,0,1-8.13-3c-3.63-2.71-5.26-6.69-5.95-10.64a43.2,43.2,0,0,1-.26-10.37,55,55,0,0,1,1-7.28,57.61,57.61,0,0,1,1.87-6.83,26.74,26.74,0,0,0-4.93.32c-1.43.22-2.63.51-3.49.72a30.46,30.46,0,0,0-10.87,5.11,37,37,0,0,0-5.44,4.92c-6.26,6.76-9.06,15.2-10.2,23.3s-.62,15.89-.26,21.32a91.57,91.57,0,0,0,4.47,22.8,99.65,99.65,0,0,0,10.24,21.57,3.49,3.49,0,0,1-2,5.23A3.4,3.4,0,0,1,609.78,358.2Zm30.38-104a50.66,50.66,0,0,0-1.85,6.39,45.64,45.64,0,0,0-1,6.8,40.6,40.6,0,0,0,0,7.72c.36,2.86,1.28,5.64,3.38,7.21a8.81,8.81,0,0,0,4.13,1.58,7.13,7.13,0,0,0,8-4.91,16.36,16.36,0,0,0,.91-3.77,18.18,18.18,0,0,0-2.72-11.58,22.94,22.94,0,0,0-9.42-8.78l-.76-.35C640.66,254.37,640.41,254.26,640.16,254.17Z"/><path class="cls-5" d="M719.66,345.82a15.06,15.06,0,1,1-4.41-10.66A15,15,0,0,1,719.66,345.82Z"/><polygon class="cls-6" points="346.25 255.36 327.06 259.74 307.87 264.12 318.34 280.79 328.81 297.46 312.13 286.99 295.46 276.52 291.08 295.71 286.7 314.9 282.32 295.71 277.94 276.52 261.27 286.99 244.6 297.46 255.07 280.79 265.54 264.12 246.35 259.74 227.16 255.36 246.35 250.98 265.54 246.6 255.07 229.93 244.6 213.25 261.27 223.72 277.94 234.19 282.32 215 286.7 195.81 291.08 215 295.46 234.19 312.13 223.72 328.81 213.25 318.34 229.93 307.87 246.6 327.06 250.98 346.25 255.36"/><path class="cls-7" d="M269.89,382a12.15,12.15,0,0,0-8.42,3.37,9.82,9.82,0,0,0-3.25-2.46,9.78,9.78,0,0,0-11,1.95,9.76,9.76,0,0,0,2.86,15.8,9.72,9.72,0,0,0-1,4.35,9.77,9.77,0,0,0,19.44,1.38l.71.07.72,0a12.24,12.24,0,1,0,0-24.48Z"/><path class="cls-7" d="M702,486.25a9.77,9.77,0,0,0-16.38-1.83,10,10,0,0,0-1.84,3.64,12.1,12.1,0,0,0-9,.69,12.25,12.25,0,0,0,10.8,22l.63-.34.61-.37a9.77,9.77,0,1,0,15.59-11.73,9.19,9.19,0,0,0-1.59-1.53,9.92,9.92,0,0,0,2.14-5A9.7,9.7,0,0,0,702,486.25Z"/><path class="cls-2" d="M175.32,493.93c19,19.13,34.79,36.71,45.89,49.5s17.45,20.82,17.46,20.82c15.66-21.92,30-41.61,42.78-59s23.85-32.46,33-45.16c4.09-5.7,9.85-13.82,17.93-21.63a84.12,84.12,0,0,1,31.79-19.78c2-.67,3.81-1.19,5.44-1.61s3.05-.73,4.21-1q-3.71,49.29-7.39,98.57L359,613.26l-33.19,38.07-33.19,38.06a77.05,77.05,0,0,1-17.8,15.09,72.4,72.4,0,0,1-21.53,8.88c-2.3.53-4.69,1-7.15,1.29a72.15,72.15,0,0,1-7.64.58c-32.43.75-55.42-17.27-73.88-41.31s-32.4-54.11-46.74-77.45l-43-70-43-70c-1.24-2-2.43-4.11-3.65-6.19s-2.48-4.11-3.86-6a33.72,33.72,0,0,1-5.88-12.59c-.77-3.9-.32-7.32,1.5-9.72a8.16,8.16,0,0,1,1.23-1.29,9.55,9.55,0,0,1,1.85-1.21,42,42,0,0,1-7.72-15.42c-1.06-4.67-.57-8.64,1.56-11.17a7.66,7.66,0,0,1,1.68-1.5,10.45,10.45,0,0,1,2.78-1.27,37.91,37.91,0,0,1-5.72-13.31c-.71-3.94-.18-7.19,1.68-9.2a6.72,6.72,0,0,1,2.2-1.52,5.63,5.63,0,0,1,1.13-.38,6.71,6.71,0,0,1,1.09-.16,9.17,9.17,0,0,1,2.61.17c1.48.33,3.66,1.88,6.21,4.46a72.39,72.39,0,0,1,8.38,10.6,15.39,15.39,0,0,1,2.65-3,9.1,9.1,0,0,1,4-2c3.23-.7,6.42.69,9.86,3.45s7.12,6.88,11.34,11.64c5,5.71,10.26,11.3,15.4,16.94s10.22,11.34,15,17.27a108.88,108.88,0,0,0,8.66,9.25c5,4.73,11.34,9.68,16.7,10.54a9.62,9.62,0,0,0,2.27.15,5.23,5.23,0,0,0,3-1,5.1,5.1,0,0,0,1.46-2,7.63,7.63,0,0,0,.46-1.56c.7-3.44-2.32-8.4-6.07-14.48s-8.24-13.27-10.49-21.19a23,23,0,0,1-1-5.86,8,8,0,0,1,1.6-5.24,6.65,6.65,0,0,1,2.19-1.75,7.86,7.86,0,0,1,1.75-.65,8.56,8.56,0,0,1,5.9.95,14.2,14.2,0,0,1,5.17,4.92l11.45,17,11.45,17a171.58,171.58,0,0,1,12.7,21.3C170.57,464.82,176.48,480.51,175.32,493.93Z"/><polyline class="cls-3" points="23.06 419.48 38.58 441.86 54.09 464.23"/><polyline class="cls-3" points="21.36 390.12 42.42 420.13 63.49 450.13"/><path class="cls-8" d="M446.11,687.09,475.3,747l29.19,59.86-37.52,0-37.52,0q4.17-29.94,8.33-59.88T446.11,687.09Z"/><polyline class="cls-3" points="38.94 380.78 58.76 409.74 78.57 438.71"/><path class="cls-9" d="M403.15,593.38a120.17,120.17,0,0,1,1.49-26.56,63.85,63.85,0,0,1,7.08-20.34,33.41,33.41,0,0,1,13.57-13.2q8.64-4.57,21-5.11t21.37,3.29a33.39,33.39,0,0,1,14.68,12,64.32,64.32,0,0,1,8.81,19.67,118.29,118.29,0,0,1,3.8,26.21,120,120,0,0,1-1.49,26.6,64.88,64.88,0,0,1-7.07,20.48,33.39,33.39,0,0,1-13.57,13.32q-8.64,4.63-21,5.17t-21.37-3.29a33.52,33.52,0,0,1-14.68-12A64.34,64.34,0,0,1,407,619.86,120.47,120.47,0,0,1,403.15,593.38Zm71.68-3.13a118.18,118.18,0,0,0-2.14-18.68,53.14,53.14,0,0,0-4.57-13.66A18.34,18.34,0,0,0,460,549.7a25.86,25.86,0,0,0-12.83-2.29,26.41,26.41,0,0,0-12.72,3.39,18.07,18.07,0,0,0-7.45,8.81,52.86,52.86,0,0,0-3.37,14,136,136,0,0,0,1.66,37.88,54,54,0,0,0,4.58,13.82,18.29,18.29,0,0,0,8.19,8.26,26.26,26.26,0,0,0,13,2.31,25.75,25.75,0,0,0,12.59-3.42,18.43,18.43,0,0,0,7.39-9,53.84,53.84,0,0,0,3.36-14.17A120.91,120.91,0,0,0,474.83,590.25Z"/><path class="cls-9" d="M584.27,522.24l-36.21,1.59-36.22,1.58a5.91,5.91,0,0,0-5.64,6.15l.25,5.62.24,5.62a4.94,4.94,0,0,0,5.14,4.7l24.93-1.09,24.94-1.09a3.8,3.8,0,0,1,3.71,5.16L546.28,600l-19.12,49.55a3.8,3.8,0,0,0,3.71,5.16l8.94-.39,8.93-.39a3.75,3.75,0,0,0,2.07-.72,3.81,3.81,0,0,0,1.33-1.75l20.64-55.63,20.63-55.63.08-.22.08-.22-.2-4.7-.2-4.71a8.54,8.54,0,0,0-8.9-8.15Z"/><path class="cls-4" d="M232.17,807.49,344.24,807l112.06-.46c-.28-30.39-2.06-57.39-4.56-80.05s-5.7-41-8.84-54A236.72,236.72,0,0,0,431.27,637c-4.37-10.39-8.95-18.92-12.94-24.4-.28-.38-.86-1.17-1.66-2.3s-1.83-2.6-3-4.33c-2-3.05-4.46-7-7-11.65A159.65,159.65,0,0,1,398.87,578l-.09-.21-.08-.2a295.06,295.06,0,0,1-10.21-29.24c-2.72-9.34-4.81-18.22-6.42-26.51a17,17,0,0,0,6-3.47c3.15-2.72,6.6-7.4,7.78-15.25a32.43,32.43,0,0,0,.15-8.35,37.11,37.11,0,0,0-1.86-8.16,72.68,72.68,0,0,0-18.23-28.22c-10.51-10-26.26-19-49.77-21.7a96.76,96.76,0,0,0-51,8.61c-15.95,7.74-28.5,20.5-30.57,38.76a35.44,35.44,0,0,1-1.83,7.95,30.23,30.23,0,0,1-10.25,14,32.82,32.82,0,0,1-10.25,5.17c-.61.19-1.22.35-1.83.49s-1.24.28-1.86.41c-2.83.58-10.95,2.7-16.76,8.56s-9.28,15.5-2.81,31.11a19.26,19.26,0,0,0,3.6,5.91c2.46,2.65,6.23,4.7,11.47,2.26a21.86,21.86,0,0,0,4.53,7.38c3.24,3.42,8.43,6.3,16.23,4.16l2.8-.77c.94-.25,1.88-.49,2.82-.7l14-3.16,14-3.16c-.46,11.93-.81,21.11-1.05,27.31s-.35,9.4-.35,9.4c-.59.52-1.31,1.19-2.12,2s-1.69,1.78-2.61,2.88a45.68,45.68,0,0,0-4.17,6.35,58.3,58.3,0,0,0-6.27,16.77c-1.28,6.36-4,27.06-7.47,58.2S236.56,759.32,232.17,807.49Z"/><path class="cls-3" d="M214,559.9a42.07,42.07,0,0,0,10.54-4.29A37.9,37.9,0,0,0,241,538.14"/><path class="cls-10" d="M241,538.14c-.39.88-.85,1.84-1.41,2.85a36.79,36.79,0,0,1-2,3.17,35.32,35.32,0,0,1-5.41,6.07,36.68,36.68,0,0,0,6.09,3.84,35,35,0,0,0,4.9,2,28.51,28.51,0,0,0,5.05,1.3,6.53,6.53,0,0,0,4.33-.79,6.75,6.75,0,0,0,2-2,6.19,6.19,0,0,0,1-2.42c.36-2.25-.92-4.81-3.47-7.28A34.52,34.52,0,0,0,241,538.14Z"/><path class="cls-11" d="M271,494.29a5.17,5.17,0,1,1-1.51-3.66A5.19,5.19,0,0,1,271,494.29Z"/><path class="cls-3" d="M328.86,481.32a117.28,117.28,0,0,0,14.92,25.32c9.41,11.82,22.71,22,38.29,15.21"/><path class="cls-7" d="M339.78,606.26A124.27,124.27,0,0,0,375.7,592.5a127.74,127.74,0,0,0,22.42-16.33q-2.6-6.46-4.8-12.74c-1.46-4.18-2.8-8.3-4-12.33A110.87,110.87,0,0,1,371,567.24,109.18,109.18,0,0,1,293,586.16a111,111,0,0,1-25.3-6.5c-.23,5.82-.4,10.46-.53,13.86s-.21,5.56-.25,6.41a127.17,127.17,0,0,0,28.62,7.69A124.25,124.25,0,0,0,339.78,606.26Z"/><path class="cls-5" d="M442.9,672.57c-2.6-9.88-5.7-18.9-8.14-25.46s-4.24-10.65-4.24-10.65c-2.25-5.12-4.49-9.72-6.58-13.72s-4-7.41-5.61-10.16c0,0-3.05-4.22-7-10.66A173.14,173.14,0,0,1,398.87,578l-.09-.21-.08-.2c-.1-.24-.2-.48-.29-.72s-.19-.47-.29-.71A127.74,127.74,0,0,1,375.7,592.5a124,124,0,0,1-80.12,15.12A127.17,127.17,0,0,1,267,599.93v.43c-.59.52-1.31,1.19-2.12,2s-1.69,1.78-2.61,2.88a45.68,45.68,0,0,0-4.17,6.35,58.3,58.3,0,0,0-6.27,16.77c-1.28,6.36-4,27.06-7.47,58.2s-7.75,72.75-12.14,120.92l52.84-.25,52.84-.26,27.31-.16c10.5-.05,22.54-.11,36.56-.16l31.15-.06c9.19,0,17.09,0,23.43,0-.52-31.65-2.38-59.52-4.86-82.3S445.87,683.83,442.9,672.57Z"/><path class="cls-9" d="M250.66,710.49A98.57,98.57,0,0,1,252,692.63a49.34,49.34,0,0,1,4.26-13.54,20.31,20.31,0,0,1,7.66-8.56,25.07,25.07,0,0,1,23.16-.21,20.22,20.22,0,0,1,7.78,8.46,49.55,49.55,0,0,1,4.42,13.47A98,98,0,0,1,300.83,710a99.83,99.83,0,0,1-1.33,17.89,50,50,0,0,1-4.26,13.63,20.41,20.41,0,0,1-7.66,8.66,22.53,22.53,0,0,1-11.57,3,22.31,22.31,0,0,1-11.59-2.74,20.1,20.1,0,0,1-7.78-8.46,49.31,49.31,0,0,1-4.42-13.53A99.53,99.53,0,0,1,250.66,710.49Zm39.17-.37a98.87,98.87,0,0,0-.8-12.64,42.68,42.68,0,0,0-2.23-9.32,11.73,11.73,0,0,0-4.28-5.73,12,12,0,0,0-7-1.85,12.23,12.23,0,0,0-7,2,11.7,11.7,0,0,0-4.23,5.76,42.12,42.12,0,0,0-2.12,9.35,98.85,98.85,0,0,0-.64,12.73,101.67,101.67,0,0,0,.8,12.83,43.36,43.36,0,0,0,2.23,9.43,11.78,11.78,0,0,0,4.31,5.77,12.16,12.16,0,0,0,7,1.87,12,12,0,0,0,6.94-2,11.81,11.81,0,0,0,4.21-5.85,43.12,43.12,0,0,0,2.11-9.46A100.81,100.81,0,0,0,289.83,710.12Z"/><path class="cls-9" d="M350.88,666.93l-19.79.19-19.8.19A3,3,0,0,0,309,668.5a4.5,4.5,0,0,0-.92,2.82l0,3.79,0,3.8a3.71,3.71,0,0,0,.8,2.34,2.44,2.44,0,0,0,1.9,1l13.63-.13,13.63-.13a2,2,0,0,1,1.74,1.14,3,3,0,0,1,.18,2.43l-11.4,32.93-11.41,32.94a3.05,3.05,0,0,0,.18,2.42,2,2,0,0,0,1.74,1.15l4.89-.05,4.88,0a1.78,1.78,0,0,0,1.15-.44,2.52,2.52,0,0,0,.76-1.14l12.35-37,12.35-37,0-.14.05-.15,0-3.17,0-3.18a6.43,6.43,0,0,0-1.39-4A4.22,4.22,0,0,0,350.88,666.93Z"/><path class="cls-3" d="M294.62,586.36l-.27,10.52-.28,10.51"/><path class="cls-3" d="M321.1,586.41l.66,11.14.67,11.14"/><path class="cls-3" d="M344.92,581.54q.91,5.4,1.82,10.78t1.82,10.78"/><path class="cls-3" d="M367.5,570.42l2.78,11.77L373.06,594"/><path class="cls-6" d="M161.75,641.19a17.17,17.17,0,0,1-5.81-1,14.79,14.79,0,0,1-5-3,15.18,15.18,0,0,1-3.92-5.8,21.24,21.24,0,0,1-1.37-7.75c0-6.75,2.9-12.55,6.48-17.11a49.51,49.51,0,0,1,10.33-9.66c.65-.45,1.32-.89,2-1.29s1.4-.79,2.13-1.15q-1.66-1.79-3.58-3.53t-4.13-3.47A59.36,59.36,0,0,0,134,576.11a50,50,0,0,0-25.84,1.42,39.18,39.18,0,0,0-16.87,11.19,44.57,44.57,0,0,0-9.64,18.82,3.51,3.51,0,0,1-4.25,2.53,3.49,3.49,0,0,1-2.54-4.24A51.62,51.62,0,0,1,86.1,584a46.29,46.29,0,0,1,19.77-13.05,57,57,0,0,1,29.28-1.8A66.45,66.45,0,0,1,163.23,582q3.08,2.4,5.69,4.89a61.89,61.89,0,0,1,4.76,5.06c8.56-2.16,18.75-1.7,29.7,1.25s22.65,8.39,34.24,16.16a3.49,3.49,0,0,1,1,4.86,3.52,3.52,0,0,1-4.86,1,113.81,113.81,0,0,0-29.88-14.65c-9.51-2.89-18.32-3.74-25.76-2.43a40.13,40.13,0,0,1,2.84,5.73,34.26,34.26,0,0,1,1.77,5.89,29.71,29.71,0,0,1-1.12,15.81,25.25,25.25,0,0,1-8.8,12.14,18.9,18.9,0,0,1-5.33,2.67A18.57,18.57,0,0,1,161.75,641.19Zm9.34-41.08a26,26,0,0,0-2.37,1.16,25.1,25.1,0,0,0-2.22,1.39,43.92,43.92,0,0,0-8.15,7.42c-3,3.66-5.69,8.34-5.67,13.58a14.88,14.88,0,0,0,.79,4.92,8.34,8.34,0,0,0,2.21,3.48,8.92,8.92,0,0,0,6.16,2.1,12.05,12.05,0,0,0,6.84-2.21,18.35,18.35,0,0,0,6.36-9,22.71,22.71,0,0,0,.8-11.84,28.28,28.28,0,0,0-1.77-5.54A33.91,33.91,0,0,0,171.09,600.11Z"/><path class="cls-8" d="M201.76,538.63l6.93-3.53,6.93-3.53a5.52,5.52,0,0,0-.74-10.16l-5-1.7-5-1.7a22,22,0,0,0-9.3,19.77,5.62,5.62,0,0,0,2.9,1.39A5.5,5.5,0,0,0,201.76,538.63Z"/><path class="cls-4" d="M403.53,806.62H344.11l5.23-33.29L354.58,740a35.7,35.7,0,0,1,10-20.12A26.7,26.7,0,0,1,383.31,712h0c9.13,0,17.14,4.86,22.46,12.34a38.48,38.48,0,0,1,6.28,28.13l-4.26,27.08Z"/><path class="cls-10" d="M314.1,513a10.28,10.28,0,1,1-1.19-7.79A10.25,10.25,0,0,1,314.1,513Z"/><path class="cls-8" d="M544.43,318.69l-29.07-1.83L486.28,315a89.69,89.69,0,0,0,3,23.25,78.82,78.82,0,0,0,14.55,28.93,77.8,77.8,0,0,0,12.61,12.52,82.16,82.16,0,0,0,12,7.84,94.47,94.47,0,0,0,9.3-16.93,98.41,98.41,0,0,0,7.69-35.84A95.41,95.41,0,0,0,544.43,318.69Z"/><path class="cls-2" d="M508,372c-1.46-1.56-2.57-2.89-3.42-4s-1.43-1.94-1.83-2.55c-.29-.45-.56-.86-.78-1.24s-.43-.71-.59-1l.71.29c.26.09.55.2.85.29l.75.23c.44.13,1,.29,1.65.41A21.16,21.16,0,0,0,513.54,323a20.86,20.86,0,0,0-14.19,2.35,22.08,22.08,0,0,0-9.75,11.12c-.54-1.52-1.07-3.22-1.55-5.11a58.6,58.6,0,0,1-1.22-6.17c-.27-1.91-.43-3.72-.51-5.41s-.08-3.27,0-4.71l-49.61-3.12-49.62-3.12q-.89,2.73-1.62,5.53c-.49,1.87-.93,3.76-1.31,5.69-4.76,24.18-.14,47.82,11.16,66.51s29.32,32.41,51.34,36.75a75.81,75.81,0,0,0,45.82-5.39,87.59,87.59,0,0,0,36-30.31,88,88,0,0,1-7.67-4.69c-2.22-1.52-4.09-3-5.62-4.22-.85-.7-1.92-1.61-3.13-2.72S509.43,373.52,508,372Z"/><path class="cls-10" d="M490.58,365.15a11.34,11.34,0,1,1-1.71-8.5A11.26,11.26,0,0,1,490.58,365.15Z"/><path class="cls-10" d="M422.12,389a11.33,11.33,0,1,1-1.71-8.51A11.33,11.33,0,0,1,422.12,389Z"/><path class="cls-11" d="M412.18,358.44a4.58,4.58,0,0,1-5.37,3.6,4.57,4.57,0,0,1-1.66-8.28,4.57,4.57,0,0,1,7,4.68Z"/><path class="cls-11" d="M458.94,348.45a4.58,4.58,0,1,1-.69-3.43A4.54,4.54,0,0,1,458.94,348.45Z"/><path class="cls-3" d="M408.45,331.76a92.35,92.35,0,0,1,12.28-4.48,90.17,90.17,0,0,1,40-2.17"/><polyline class="cls-3" points="421.4 328.52 424.76 349.92 428.11 371.32 431.09 370.6 434.07 369.89"/><path class="cls-4" d="M481.1,248.16c-20.26-4-40.39.67-57.15,11.58a92,92,0,0,0-36.9,49.05l78.69,4.95,78.69,4.95a88.75,88.75,0,0,0-20.88-45.88A75.94,75.94,0,0,0,481.1,248.16Z"/><polyline class="cls-3" points="501.59 349.33 509.16 345.2 516.73 341.08"/><path class="cls-8" d="M416.93,310.67a41.93,41.93,0,0,1-7.53,23.49,36.63,36.63,0,0,1-18.74,14,34.11,34.11,0,0,1-8.79,1.57,36.82,36.82,0,0,1-26-9.27,32.82,32.82,0,0,1-10.95-25.92,31.16,31.16,0,0,1,1.68-8.77,35.44,35.44,0,0,1,11.2-15.65c5.18-4.11,11.53-6.57,18.28-5.81a24.08,24.08,0,0,1,11.19,4.4,31.43,31.43,0,0,1,5.85,5.42c-.72,1.38-1.45,2.84-2.16,4.39s-1.4,3.18-2.06,4.9c-.36.93-.69,1.84-1,2.74s-.6,1.78-.88,2.65l15,.94Z"/><polyline class="cls-3" points="399.73 283.23 468.69 289.09 537.65 294.95"/><polyline class="cls-3" points="420.59 285 418.07 297.79 415.55 310.58"/><polyline class="cls-3" points="447.8 287.5 445.42 299.59 443.04 311.68"/><polyline class="cls-3" points="481.01 290.65 478.67 302.53 476.33 314.41"/><polyline class="cls-3" points="514.91 293.5 512.7 304.73 510.49 315.97"/><path class="cls-10" d="M464.53,374.78a3.2,3.2,0,0,0-4.39-1.89l-6.72,3.17-6.72,3.17a32.87,32.87,0,0,0-4.41,11.2,42.86,42.86,0,0,0-.84,9.25,19.84,19.84,0,0,0,7.76.95,17.09,17.09,0,0,0,7.33-2.28,18.45,18.45,0,0,0,7.91-10A21.36,21.36,0,0,0,464.53,374.78Z"/><path class="cls-8" d="M431.67,386.32a3.27,3.27,0,0,0-1.73,2,3.21,3.21,0,0,0,.35,2.62,20.59,20.59,0,0,0,4.95,5.45,20.84,20.84,0,0,0,6.21,3.28,42.86,42.86,0,0,1,.84-9.25,32.87,32.87,0,0,1,4.41-11.2l-7.52,3.54Z"/><path class="cls-8" d="M748,605.94l30.45,14,30.45,14a67.56,67.56,0,0,1-15.88,6.11,60.19,60.19,0,0,1-7.43,1.33c-2.43.29-5,.47-8,.71-4.43.36-8.51.51-12.13.52s-6.79-.08-9.41-.22q-2-9.13-4-18.27T748,605.94Z"/><path class="cls-7" d="M744,604.38c.14-.52.26-1,.37-1.57s.19-1.08.26-1.63a22.23,22.23,0,0,0-22.82-24.92,22.91,22.91,0,0,0-3.34.36,20.75,20.75,0,0,0-6.24-10.19,20.56,20.56,0,0,0-33.73,11l-.78-.15-.78-.12A20.57,20.57,0,0,0,654,595.06a17.14,17.14,0,0,0-.13,1.89c0,.62,0,1.24,0,1.85a24.3,24.3,0,0,0-17.33,17.38A20.55,20.55,0,1,0,655.2,646l.94.17c.32.06.63.1,1,.14a24.21,24.21,0,0,0,14.49-2.75,31.68,31.68,0,0,0,9.63,10,31.46,31.46,0,0,0,40.67-5.2,26.08,26.08,0,1,0,22.08-44Z"/><polygon class="cls-10" points="748.46 807.49 692.25 807.49 636.05 807.49 629.89 731.35 623.74 655.2 691.52 655.2 759.3 655.2 753.88 731.35 748.46 807.49"/><polygon class="cls-9" points="668.72 807.35 664.01 731.39 659.3 655.42 662.79 655.2 666.29 654.99 671.01 731.13 675.73 807.28 672.22 807.32 668.72 807.35"/><polygon class="cls-9" points="714 807.36 710.5 807.36 706.99 807.36 709.86 731.22 712.73 655.07 716.23 655.2 719.72 655.34 716.86 731.35 714 807.36"/><path class="cls-3" d="M707,622.24a13.48,13.48,0,0,0-.41-3.53,10.22,10.22,0,0,0-3.07-5.22,10.69,10.69,0,0,0-7.4-2.49,14.19,14.19,0,0,0-8.34,3.1,12.55,12.55,0,0,0-3-5.73,10.94,10.94,0,0,0-13.13-2.31,12.78,12.78,0,0,0-5.81,5.92"/><path class="cls-9" d="M769.27,655.2H613.78a2.24,2.24,0,0,1-2.24-2.23v-8.26a2.24,2.24,0,0,1,2.24-2.23H769.27a2.22,2.22,0,0,1,2.23,2.23V653a2.22,2.22,0,0,1-2.23,2.23Z"/><path class="cls-8" d="M778.05,489.62l-5.82,8.5-5.83,8.49"/></svg>