<?xml version="1.0" encoding="utf-8"?><!-- Uploaded to: SVG Repo, www.svgrepo.com, Generator: SVG Repo Mixer Tools -->
<svg width="800px" height="800px" viewBox="0 0 24 24" fill="none" xmlns="http://www.w3.org/2000/svg">
<path fill-rule="evenodd" clip-rule="evenodd" d="M11.4265 1.18077C11.7709 0.939744 12.2291 0.939744 12.5735 1.18077L22.5735 8.18077C22.8408 8.3679 23 8.67369 23 9V16C23 16.3263 22.8408 16.6321 22.5735 16.8192L12.5735 23.8192C12.2291 24.0603 11.7709 24.0603 11.4265 23.8192L1.42654 16.8192C1.15921 16.6321 1 16.3263 1 16V9C1 8.67369 1.15921 8.3679 1.42654 8.18077L11.4265 1.18077ZM3 10.9207V14.0793L5.25621 12.5L3 10.9207ZM7 13.7207L3.74379 16L11 21.0793V16.5207L7 13.7207ZM13 16.5207V21.0793L20.2562 16L17 13.7207L13 16.5207ZM18.7438 12.5L21 14.0793V10.9207L18.7438 12.5ZM20.2562 9L17 11.2793L13 8.47934V3.92066L20.2562 9ZM11 3.92066V8.47934L7 11.2793L3.74379 9L11 3.92066ZM12 10.2207L8.74379 12.5L12 14.7793L15.2562 12.5L12 10.2207Z" fill="#000000"/>
</svg>