<svg width="19" height="15" viewBox="0 0 19 15" xmlns="http://www.w3.org/2000/svg">
<path d="M9.48276 7.11207L0 2.31513V1.18534C0 0.851967 0.1173 0.571065 0.351899 0.342639C0.586499 0.114213 0.864314 0 1.18534 0H17.7802C18.1012 0 18.379 0.114213 18.6136 0.342639C18.8482 0.571065 18.9655 0.851967 18.9655 1.18534V2.31513L9.48276 7.11207ZM8.89009 8.29741H10.0754L18.9655 3.68568V13.0388C18.9655 13.3598 18.8482 13.6376 18.6136 13.8722C18.379 14.1068 18.1012 14.2241 17.7802 14.2241H1.18534C0.864314 14.2241 0.586499 14.1068 0.351899 13.8722C0.1173 13.6376 0 13.3598 0 13.0388V3.68568L8.89009 8.29741Z"/>
</svg>
