<svg width="20" height="20" viewBox="0 0 20 20" xmlns="http://www.w3.org/2000/svg">
<path fill-rule="evenodd" clip-rule="evenodd" d="M10.2397 0.517241C4.86796 0.517241 0.51709 4.86811 0.51709 10.2399C0.51709 14.5421 3.30019 18.1759 7.16493 19.4642C7.65106 19.5493 7.83336 19.2576 7.83336 19.0024C7.83336 18.7714 7.8212 18.0058 7.8212 17.1915C5.3784 17.6412 4.74643 16.596 4.55197 16.0491C4.4426 15.7696 3.96862 14.9067 3.55541 14.6758C3.21512 14.4935 2.72898 14.0438 3.54325 14.0317C4.30891 14.0195 4.85581 14.7366 5.03811 15.0282C5.91314 16.4988 7.31077 16.0856 7.86982 15.8304C7.95489 15.1984 8.21011 14.773 8.48963 14.53C6.32635 14.2869 4.06584 13.4483 4.06584 9.72942C4.06584 8.67208 4.4426 7.79705 5.06241 7.11647C4.96519 6.8734 4.62489 5.87683 5.15964 4.53997C5.15964 4.53997 5.97391 4.28475 7.83336 5.53654C8.61117 5.31778 9.43759 5.2084 10.264 5.2084C11.0904 5.2084 11.9169 5.31778 12.6947 5.53654C14.5541 4.2726 15.3684 4.53997 15.3684 4.53997C15.9031 5.87683 15.5628 6.8734 15.4656 7.11647C16.0854 7.79705 16.4622 8.65993 16.4622 9.72942C16.4622 13.4605 14.1895 14.2869 12.0262 14.53C12.3787 14.8338 12.6825 15.4171 12.6825 16.3286C12.6825 17.629 12.6704 18.6742 12.6704 19.0024C12.6704 19.2576 12.8527 19.5614 13.3388 19.4642C15.2689 18.8125 16.946 17.5721 18.1342 15.9173C19.3224 14.2626 19.9617 12.277 19.9623 10.2399C19.9623 4.86811 15.6114 0.517241 10.2397 0.517241Z"/>
</svg>
