<svg width="20" height="19" viewBox="0 0 20 19" xmlns="http://www.w3.org/2000/svg">
<path fill-rule="evenodd" clip-rule="evenodd" d="M5.08415 2.80053C5.08415 4.06155 4.06189 5.08382 2.80086 5.08382C1.53984 5.08382 0.517578 4.06155 0.517578 2.80053C0.517578 1.5395 1.53984 0.517242 2.80086 0.517242C4.06189 0.517242 5.08415 1.5395 5.08415 2.80053ZM7.40948 18.9807V6.31306H11.185V8.04536H11.2383C11.7632 7.05085 13.0467 6 14.9617 6C18.9501 6 19.6848 8.62244 19.6848 12.0348V18.9818H15.7495V12.8206C15.7495 11.3524 15.7245 9.4625 13.7031 9.4625C11.6536 9.4625 11.3426 11.0633 11.3426 12.7163V18.9807H7.40948ZM4.9394 6.31306H1V18.9807H4.9394V6.31306Z" />
</svg>
